<?xml version="1.0" encoding="UTF-8"?>
<svg version="1.1" xmlns="http://www.w3.org/2000/svg" width="500" height="500">
<path d="M0 0 C1.14275391 0.80050781 1.14275391 0.80050781 2.30859375 1.6171875 C3.14583984 2.30167969 3.14583984 2.30167969 4 3 C4 3.66 4 4.32 4 5 C4.66 5 5.32 5 6 5 C7.55078125 6.8359375 7.55078125 6.8359375 9.3125 9.375 C10.17294922 10.59316406 10.17294922 10.59316406 11.05078125 11.8359375 C13.66594484 16.08099262 15.82730535 20.51596317 18 25 C18.70793701 24.74831055 19.41587402 24.49662109 20.14526367 24.23730469 C49.91655171 13.74365304 78.4251009 9.14747146 110 10 C111.16523193 10.02900391 111.16523193 10.02900391 112.35400391 10.05859375 C137.10197655 10.77607921 159.70294056 17.01551438 183 25 C183.52207031 23.97261719 184.04414063 22.94523437 184.58203125 21.88671875 C193.08937895 5.66860618 204.17666241 -5.63808664 221.671875 -11.96484375 C239.16924571 -17.40710107 256.48390481 -15.61959271 273 -8 C276.17198216 -6.1982762 279.10158616 -4.21164108 282 -2 C282.93199219 -1.29617188 282.93199219 -1.29617188 283.8828125 -0.578125 C285.30907408 0.54961672 286.66394557 1.76671899 288 3 C288 3.66 288 4.32 288 5 C288.66 5 289.32 5 290 5 C302.16184129 19.61817376 305.75398869 35.26628092 305 54 C303.28909943 71.00072083 294.58634331 83.77151946 282 95 C281.34 95.33 280.68 95.66 280 96 C281.35788449 98.88033671 282.90916608 101.39816755 284.78515625 103.96875 C285.58083008 105.07283203 285.58083008 105.07283203 286.39257812 106.19921875 C287.50720871 107.734932 288.62440549 109.26878591 289.74414062 110.80078125 C290.53788086 111.90486328 290.53788086 111.90486328 291.34765625 113.03125 C291.83242432 113.69705078 292.31719238 114.36285156 292.81665039 115.04882812 C294.02660192 117.04386271 294.56503224 118.71999367 295 121 C295.66 121 296.32 121 297 121 C328.80804911 176.50816413 338.70984418 241.90531333 322.18359375 304.0234375 C314.99995855 328.75521912 304.56090674 353.33263162 289 374 C288.32582031 374.92683594 287.65164063 375.85367187 286.95703125 376.80859375 C282.82516311 382.43232225 278.53154057 387.89171157 274.0625 393.25 C273.58973633 393.82339111 273.11697266 394.39678223 272.62988281 394.98754883 C271.46545834 396.36485919 270.23775284 397.68819357 269 399 C268.34 399 267.68 399 267 399 C267 399.66 267 400.32 267 401 C266.34 401 265.68 401 265 401 C265 401.66 265 402.32 265 403 C264.34 403 263.68 403 263 403 C263 403.66 263 404.32 263 405 C262.34 405 261.68 405 261 405 C260.60385498 405.8964624 260.60385498 405.8964624 260.19970703 406.81103516 C258.94918982 409.09270738 257.76939761 410.34123473 255.8046875 412.0234375 C255.1744165 412.56718018 254.54414551 413.11092285 253.89477539 413.67114258 C252.89498657 414.514552 252.89498657 414.514552 251.875 415.375 C251.20009521 415.95209717 250.52519043 416.52919434 249.82983398 417.1237793 C245.34620223 420.93305902 240.78920746 424.57913753 236 428 C236.88751953 428.87398438 236.88751953 428.87398438 237.79296875 429.765625 C244.62315136 436.85207874 249.99737954 444.55065167 250.5625 454.6875 C250.27609019 459.59226792 248.25971232 463.70745411 246 468 C245.67 468.66 245.34 469.32 245 470 C244.34 470 243.68 470 243 470 C243 470.66 243 471.32 243 472 C230.66868528 480.96822888 217.27174674 482.44415431 202.40234375 480.5390625 C190.90537665 478.37462794 179.26452233 473.57953776 171 465 C169.7578125 462.28515625 169.7578125 462.28515625 169 460 C168.01386719 460.31453125 167.02773438 460.6290625 166.01171875 460.953125 C125.45047604 473.3739092 78.62700529 473.06305703 37.84375 461.734375 C35.00538925 460.87498054 35.00538925 460.87498054 32 461 C30.33441377 462.60003683 30.33441377 462.60003683 28.75 464.6875 C20.30200201 474.64281713 7.93102437 479.66230782 -5 481 C-18.51644352 481.83730181 -31.04332912 480.58440085 -42 472 C-46.8232388 467.06327323 -48.58863713 461.56514487 -49.375 454.75 C-48.26504795 443.65047954 -42.76440447 435.61380179 -35 428 C-36.99752985 426.28870156 -38.99731856 424.58025622 -41 422.875 C-41.58998779 422.37234619 -42.17997559 421.86969238 -42.7878418 421.35180664 C-46.64027867 418.09116135 -50.55954476 415.0029555 -54.70703125 412.12109375 C-55.13371094 411.75113281 -55.56039062 411.38117188 -56 411 C-56 410.34 -56 409.68 -56 409 C-56.66 409 -57.32 409 -58 409 C-58 408.34 -58 407.68 -58 407 C-58.66 407 -59.32 407 -60 407 C-60 406.34 -60 405.68 -60 405 C-60.66 405 -61.32 405 -62 405 C-62 404.34 -62 403.68 -62 403 C-63.32 402.34 -64.64 401.68 -66 401 C-66 400.34 -66 399.68 -66 399 C-66.55429688 398.78859375 -67.10859375 398.5771875 -67.6796875 398.359375 C-70.80418136 396.52886344 -72.85266443 394.00935137 -75.125 391.25 C-75.60364502 390.67507813 -76.08229004 390.10015625 -76.57543945 389.5078125 C-109.15749155 349.8622933 -126.35867238 302.04565721 -129 251 C-129.03996094 250.29391602 -129.07992187 249.58783203 -129.12109375 248.86035156 C-131.2018038 206.72597314 -119.35501462 164.24115734 -99.4375 127.4375 C-99.00276367 126.62853271 -98.56802734 125.81956543 -98.12011719 124.98608398 C-95.31296623 119.92411986 -92.13984058 115.39918292 -88.4987793 110.89941406 C-86.77512816 108.71501825 -85.42063584 106.38925118 -84 104 C-83.11718016 102.9266628 -82.22047742 101.86464097 -81.3125 100.8125 C-78.7882982 98.34937949 -78.7882982 98.34937949 -79 96 C-80.69135765 94.8080755 -82.38457842 93.61867286 -84.08886719 92.4453125 C-87.09057695 90.17524073 -89.32908086 87.46167347 -91.625 84.5 C-92.0986499 83.89124023 -92.5722998 83.28248047 -93.06030273 82.65527344 C-97.37275492 76.88545841 -100.01955653 70.93155215 -102 64 C-102.36351562 62.75863281 -102.36351562 62.75863281 -102.734375 61.4921875 C-106.92320926 44.34060937 -103.22693751 27.17772672 -94.3125 12.25 C-93.549375 11.1775 -92.78625 10.105 -92 9 C-91.34 9 -90.68 9 -90 9 C-89.73316406 8.40960937 -89.46632812 7.81921875 -89.19140625 7.2109375 C-83.2767972 -3.76502552 -70.2490297 -9.42566802 -59 -13 C-37.72785608 -18.68632102 -16.98746801 -13.55594275 0 0 Z " fill="#DFB386" transform="translate(155,17)"/>
<path d="M0 0 C0.56807373 0.13575439 1.13614746 0.27150879 1.72143555 0.41137695 C12.47228111 2.9792783 23.22365871 5.54083492 34 8 C34.35807292 9.98567708 34.71614583 11.97135417 35.07421875 13.95703125 C37.07531454 18.37295151 42.73705003 19.86429989 46.9375 21.75 C59.08275677 27.32285175 70.27040725 33.03978333 81 41 C81.83917969 41.61359375 82.67835938 42.2271875 83.54296875 42.859375 C96.04120594 52.40125918 106.53808067 63.78511949 115 77 C115.42796875 77.65871094 115.8559375 78.31742187 116.296875 78.99609375 C122.85924455 89.20636873 127.49588017 99.39279367 131 111 C131.31582031 112.00804687 131.63164062 113.01609375 131.95703125 114.0546875 C132.7323813 116.69011377 133.39523086 119.32059233 134 122 C134.20496094 122.87269531 134.40992188 123.74539063 134.62109375 124.64453125 C135.14427857 127.3398351 135.51867712 130.00774761 135.78173828 132.74023438 C135.9468199 134.44940151 136.13712112 136.1561579 136.33935547 137.86132812 C138.56310439 158.43967989 138.56310439 158.43967989 132.78125 165.95703125 C128.90990701 170.13677817 124.54556253 173.5894317 120 177 C119.06542969 177.80050781 118.13085938 178.60101563 117.16796875 179.42578125 C110.87561559 184.79984738 103.89771738 189.43866285 97 194 C96.19256348 194.53681396 95.38512695 195.07362793 94.55322266 195.62670898 C87.99938217 199.90036646 81.3088908 203.56934116 74.25 206.9375 C73.17596924 207.45111084 72.10193848 207.96472168 70.99536133 208.49389648 C26.44396184 229.34281654 -26.12307107 234.52114293 -74 223 C-74.84723633 222.79713379 -75.69447266 222.59426758 -76.56738281 222.38525391 C-81.46962204 221.16428421 -86.24209309 219.69490185 -91 218 C-91.72155273 217.74492676 -92.44310547 217.48985352 -93.18652344 217.22705078 C-103.57810262 213.49473821 -113.5014187 209.04878906 -123.26904297 203.90820312 C-124.79786754 203.10605539 -126.33763129 202.32483197 -127.87890625 201.546875 C-141.19144835 194.64260577 -153.24107009 185.60363911 -164.26806641 175.49316406 C-166.02829615 173.97560484 -167.8558773 172.66417676 -169.76171875 171.3359375 C-174.74293282 167.59391685 -178.36946384 164.22881522 -179.60253906 157.91455078 C-180.76870702 144.91305754 -179.70117839 131.52338379 -176 119 C-175.7215625 117.81277344 -175.443125 116.62554687 -175.15625 115.40234375 C-169.98283491 93.83901449 -159.00283949 75.20027263 -144 59 C-143.50129395 58.45746582 -143.00258789 57.91493164 -142.48876953 57.35595703 C-126.66477402 40.33355226 -107.76196598 28.99581002 -86.47387695 20.00537109 C-85.66007568 19.65555176 -84.84627441 19.30573242 -84.0078125 18.9453125 C-83.28223145 18.64125488 -82.55665039 18.33719727 -81.80908203 18.02392578 C-79.66921095 16.99227423 -79.66921095 16.99227423 -78 14 C-77.60986284 12.0103005 -77.26797351 10.00980131 -77 8 C-72.85618154 7.01217427 -68.70962824 6.03632861 -64.5625 5.0625 C-63.39783203 4.78470703 -62.23316406 4.50691406 -61.03320312 4.22070312 C-54.67998306 2.73530238 -48.50317447 1.54946608 -42 1 C-40.10043153 3.66402342 -38.20605888 6.33170249 -36.3125 9 C-35.51682617 10.11568359 -35.51682617 10.11568359 -34.70507812 11.25390625 C-31.65750284 15.55416586 -28.77885695 19.88811178 -26.1159668 24.43823242 C-25.00965671 26.23418447 -25.00965671 26.23418447 -22.5 27.3125 C-18.71894928 26.83986866 -17.51181773 24.8147134 -15 22 C-13.21216034 19.42461004 -11.60116253 16.75695631 -10 14.0625 C-6.98221351 9.01242292 -3.88269106 4.43042783 0 0 Z " fill="#F9F1DD" transform="translate(277,241)"/>
<path d="M0 0 C1.14275391 0.80050781 1.14275391 0.80050781 2.30859375 1.6171875 C3.14583984 2.30167969 3.14583984 2.30167969 4 3 C4 3.66 4 4.32 4 5 C4.66 5 5.32 5 6 5 C7.55078125 6.8359375 7.55078125 6.8359375 9.3125 9.375 C10.17294922 10.59316406 10.17294922 10.59316406 11.05078125 11.8359375 C13.66594484 16.08099262 15.82730535 20.51596317 18 25 C18.70793701 24.74831055 19.41587402 24.49662109 20.14526367 24.23730469 C49.91655171 13.74365304 78.4251009 9.14747146 110 10 C111.16523193 10.02900391 111.16523193 10.02900391 112.35400391 10.05859375 C137.10197655 10.77607921 159.70294056 17.01551438 183 25 C183.52207031 23.97261719 184.04414063 22.94523437 184.58203125 21.88671875 C193.08937895 5.66860618 204.17666241 -5.63808664 221.671875 -11.96484375 C239.16924571 -17.40710107 256.48390481 -15.61959271 273 -8 C276.17198216 -6.1982762 279.10158616 -4.21164108 282 -2 C282.93199219 -1.29617188 282.93199219 -1.29617188 283.8828125 -0.578125 C285.30907408 0.54961672 286.66394557 1.76671899 288 3 C288 3.66 288 4.32 288 5 C288.66 5 289.32 5 290 5 C302.16184129 19.61817376 305.75398869 35.26628092 305 54 C303.28909943 71.00072083 294.58634331 83.77151946 282 95 C281.34 95.33 280.68 95.66 280 96 C281.35788449 98.88033671 282.90916608 101.39816755 284.78515625 103.96875 C285.58083008 105.07283203 285.58083008 105.07283203 286.39257812 106.19921875 C287.50720871 107.734932 288.62440549 109.26878591 289.74414062 110.80078125 C290.53788086 111.90486328 290.53788086 111.90486328 291.34765625 113.03125 C291.83242432 113.69705078 292.31719238 114.36285156 292.81665039 115.04882812 C294.02660192 117.04386271 294.56503224 118.71999367 295 121 C295.66 121 296.32 121 297 121 C328.80804911 176.50816413 338.70984418 241.90531333 322.18359375 304.0234375 C314.99995855 328.75521912 304.56090674 353.33263162 289 374 C288.32582031 374.92683594 287.65164063 375.85367187 286.95703125 376.80859375 C282.82516311 382.43232225 278.53154057 387.89171157 274.0625 393.25 C273.58973633 393.82339111 273.11697266 394.39678223 272.62988281 394.98754883 C271.46545834 396.36485919 270.23775284 397.68819357 269 399 C268.34 399 267.68 399 267 399 C267 399.66 267 400.32 267 401 C266.34 401 265.68 401 265 401 C265 401.66 265 402.32 265 403 C264.34 403 263.68 403 263 403 C263 403.66 263 404.32 263 405 C262.34 405 261.68 405 261 405 C260.60385498 405.8964624 260.60385498 405.8964624 260.19970703 406.81103516 C258.94918982 409.09270738 257.76939761 410.34123473 255.8046875 412.0234375 C255.1744165 412.56718018 254.54414551 413.11092285 253.89477539 413.67114258 C252.89498657 414.514552 252.89498657 414.514552 251.875 415.375 C251.20009521 415.95209717 250.52519043 416.52919434 249.82983398 417.1237793 C245.34620223 420.93305902 240.78920746 424.57913753 236 428 C236.88751953 428.87398438 236.88751953 428.87398438 237.79296875 429.765625 C244.62315136 436.85207874 249.99737954 444.55065167 250.5625 454.6875 C250.27609019 459.59226792 248.25971232 463.70745411 246 468 C245.67 468.66 245.34 469.32 245 470 C244.34 470 243.68 470 243 470 C243 470.66 243 471.32 243 472 C230.66868528 480.96822888 217.27174674 482.44415431 202.40234375 480.5390625 C190.90537665 478.37462794 179.26452233 473.57953776 171 465 C169.7578125 462.28515625 169.7578125 462.28515625 169 460 C168.01386719 460.31453125 167.02773438 460.6290625 166.01171875 460.953125 C125.45047604 473.3739092 78.62700529 473.06305703 37.84375 461.734375 C35.00538925 460.87498054 35.00538925 460.87498054 32 461 C30.33441377 462.60003683 30.33441377 462.60003683 28.75 464.6875 C20.30200201 474.64281713 7.93102437 479.66230782 -5 481 C-18.51644352 481.83730181 -31.04332912 480.58440085 -42 472 C-46.8232388 467.06327323 -48.58863713 461.56514487 -49.375 454.75 C-48.26504795 443.65047954 -42.76440447 435.61380179 -35 428 C-36.99752985 426.28870156 -38.99731856 424.58025622 -41 422.875 C-41.58998779 422.37234619 -42.17997559 421.86969238 -42.7878418 421.35180664 C-46.64027867 418.09116135 -50.55954476 415.0029555 -54.70703125 412.12109375 C-55.13371094 411.75113281 -55.56039062 411.38117188 -56 411 C-56 410.34 -56 409.68 -56 409 C-56.66 409 -57.32 409 -58 409 C-58 408.34 -58 407.68 -58 407 C-58.66 407 -59.32 407 -60 407 C-60 406.34 -60 405.68 -60 405 C-60.66 405 -61.32 405 -62 405 C-62 404.34 -62 403.68 -62 403 C-63.32 402.34 -64.64 401.68 -66 401 C-66 400.34 -66 399.68 -66 399 C-66.55429688 398.78859375 -67.10859375 398.5771875 -67.6796875 398.359375 C-70.80418136 396.52886344 -72.85266443 394.00935137 -75.125 391.25 C-75.60364502 390.67507813 -76.08229004 390.10015625 -76.57543945 389.5078125 C-109.15749155 349.8622933 -126.35867238 302.04565721 -129 251 C-129.03996094 250.29391602 -129.07992187 249.58783203 -129.12109375 248.86035156 C-131.2018038 206.72597314 -119.35501462 164.24115734 -99.4375 127.4375 C-99.00276367 126.62853271 -98.56802734 125.81956543 -98.12011719 124.98608398 C-95.31296623 119.92411986 -92.13984058 115.39918292 -88.4987793 110.89941406 C-86.77512816 108.71501825 -85.42063584 106.38925118 -84 104 C-83.11718016 102.9266628 -82.22047742 101.86464097 -81.3125 100.8125 C-78.7882982 98.34937949 -78.7882982 98.34937949 -79 96 C-80.69135765 94.8080755 -82.38457842 93.61867286 -84.08886719 92.4453125 C-87.09057695 90.17524073 -89.32908086 87.46167347 -91.625 84.5 C-92.0986499 83.89124023 -92.5722998 83.28248047 -93.06030273 82.65527344 C-97.37275492 76.88545841 -100.01955653 70.93155215 -102 64 C-102.36351562 62.75863281 -102.36351562 62.75863281 -102.734375 61.4921875 C-106.92320926 44.34060937 -103.22693751 27.17772672 -94.3125 12.25 C-93.549375 11.1775 -92.78625 10.105 -92 9 C-91.34 9 -90.68 9 -90 9 C-89.73316406 8.40960937 -89.46632812 7.81921875 -89.19140625 7.2109375 C-83.2767972 -3.76502552 -70.2490297 -9.42566802 -59 -13 C-37.72785608 -18.68632102 -16.98746801 -13.55594275 0 0 Z M-77.25 18.3125 C-85.37048348 28.39543366 -88.23735452 40.25054958 -87 53 C-84.40789447 66.13126512 -77.76525818 76.10195928 -67 84 C-57.62522573 89.72094144 -48.69785469 91.3164593 -37.91601562 91.390625 C-32.48222285 91.56543871 -32.48222285 91.56543871 -29.984375 93.81640625 C-28.46403027 97.18891698 -29.0442285 99.49550451 -30 103 C-31.80191168 105.05797281 -33.24262903 105.89721461 -35.96264648 106.26635742 C-38.37815231 106.36959306 -40.77032577 106.35930818 -43.1875 106.3125 C-44.40663086 106.31733398 -44.40663086 106.31733398 -45.65039062 106.32226562 C-51.32118341 106.27264055 -56.52018267 105.43936865 -62 104 C-77.4117354 122.04079614 -89.74161614 142.78191682 -98 165 C-98.29648438 165.78439453 -98.59296875 166.56878906 -98.8984375 167.37695312 C-106.2259153 187.02649294 -111.04312963 208.24024202 -111.23828125 229.2734375 C-111.2480751 230.14640976 -111.25786896 231.01938202 -111.26795959 231.91880798 C-111.44040628 251.28874496 -111.29799238 270.01388399 -107 289 C-106.79632813 289.92893066 -106.59265625 290.85786133 -106.3828125 291.81494141 C-100.68221167 317.02338537 -89.79913372 343.39121849 -74 364 C-73.67 364 -73.34 364 -73 364 C-72.90203125 363.13761719 -72.8040625 362.27523438 -72.703125 361.38671875 C-70.58445328 344.09032116 -67.09434998 327.97947164 -60 312 C-59.69046387 311.30245605 -59.38092773 310.60491211 -59.06201172 309.88623047 C-42.49423708 273.30300209 -10.91786153 246.51157879 25.75 231.3125 C26.58394287 230.96074707 27.41788574 230.60899414 28.27709961 230.24658203 C32.89688136 228.42202963 36.06363741 227.4811192 41 229 C42.875 230.1875 42.875 230.1875 44 232 C44.4375 234.9375 44.4375 234.9375 44 238 C40.61540367 242.52196745 35.66582334 244.12495622 30.625 246.25 C-4.38205049 261.58052202 -34.0975085 287.98063515 -48.55273438 324.00439453 C-52.59265226 334.61566985 -55.64529025 345.71834153 -57 357 C-57.11545166 357.95688721 -57.23090332 358.91377441 -57.34985352 359.8996582 C-59.29494273 375.83939903 -59.29494273 375.83939903 -53.703125 390.23046875 C-49.56978154 394.70525809 -44.86253922 398.35888182 -40 402 C-38.77596822 403.0179352 -37.55912396 404.0446108 -36.3515625 405.08203125 C-0.232931 435.59379937 48.22057747 452.78121841 95.33398438 452.33618164 C97.99900634 452.31250883 100.66302345 452.31566642 103.328125 452.32226562 C118.43630929 452.29847799 133.68184968 451.46467413 148.4375 448 C149.33033691 447.79125244 150.22317383 447.58250488 151.14306641 447.36743164 C176.18268841 441.1769738 201.08812593 431.23991672 222 416 C223.26593016 415.10925856 224.53277068 414.21980863 225.80078125 413.33203125 C233.83177698 407.60679875 241.37740635 401.53432776 248.36547852 394.55908203 C250 393 250 393 252.13256836 391.29638672 C255.39081588 388.51866301 257.65346782 386.42553824 258.68481445 382.18286133 C258.89821101 378.91791985 258.85157963 375.7676032 258.6875 372.5 C258.65624023 371.3452417 258.62498047 370.1904834 258.59277344 369.00073242 C258.26513806 360.06516515 257.20118823 351.66365111 255 343 C254.69835937 341.71996094 254.39671875 340.43992187 254.0859375 339.12109375 C248.8244319 317.92535373 238.01016272 298.84209985 223 283 C222.22438721 282.17097168 222.22438721 282.17097168 221.43310547 281.32519531 C214.51883314 273.98904223 207.43594737 267.58176599 199 262 C197.92105469 261.26136719 196.84210938 260.52273438 195.73046875 259.76171875 C186.5052667 253.54530353 176.87135126 248.9748909 166.6796875 244.5625 C165.69226563 244.129375 164.70484375 243.69625 163.6875 243.25 C162.82511719 242.88390625 161.96273438 242.5178125 161.07421875 242.140625 C159 241 159 241 157 238 C156.68166267 234.94396162 156.53778783 232.86664781 158 230.125 C161.16459382 228.34491597 164.48000323 228.67912955 168 229 C171.5703125 230.06640625 171.5703125 230.06640625 175.125 231.5625 C175.7653418 231.8313501 176.40568359 232.1002002 177.06542969 232.37719727 C215.91578365 248.96536386 247.58951809 277.81063779 263.52490234 317.39038086 C269.37722309 332.50542483 273.00442972 347.79623541 274 364 C298.64385173 342.92687263 309.40997907 293.57956626 312 263 C312.40396688 255.9431043 312.43986014 248.87913898 312.4375 241.8125 C312.43823517 240.8497818 312.43897034 239.8870636 312.43972778 238.89517212 C312.40623912 222.11873901 311.06845098 206.33761275 307 190 C306.74831055 188.9879248 306.49662109 187.97584961 306.23730469 186.93310547 C299.69276668 161.64813882 288.48770468 138.01176565 273 117 C271.88431641 115.39898437 271.88431641 115.39898437 270.74609375 113.765625 C269.95654893 112.65566642 269.16619344 111.54628402 268.375 110.4375 C267.66085937 109.42558594 266.94671875 108.41367188 266.2109375 107.37109375 C263.72427641 104.7043035 262.5956505 104.15005925 259 104 C257.906875 104.309375 256.81375 104.61875 255.6875 104.9375 C251.4342549 106.11080899 247.20183581 106.33468315 242.8125 106.4375 C242.12309326 106.47157959 241.43368652 106.50565918 240.72338867 106.54077148 C236.80924852 106.57536795 235.1486851 106.11725893 232.04296875 103.66796875 C230 101 230 101 229.5 97.875 C230 95 230 95 231.0625 93.3515625 C233.99575031 91.30538386 237.04497585 91.55608155 240.5 91.5 C256.25849241 90.8546978 268.11693556 85.60490035 279 74 C286.95504458 63.65509959 289.30650764 51.85955838 288 39 C287.09264647 35.08351359 285.74729398 31.61471443 284 28 C283.5875 27.14664063 283.175 26.29328125 282.75 25.4140625 C276.60053481 14.05851599 267.03682269 7.27704359 255 3 C240.95212587 0.03494034 227.71011581 2.68420293 215.75390625 10.4609375 C205.56907135 17.77753053 198.04972536 29.54661727 196 42 C195.90052669 44.1560541 195.84577169 46.3144163 195.82421875 48.47265625 C195.80037109 49.70177734 195.77652344 50.93089844 195.75195312 52.19726562 C195.70892207 54.77782524 195.67770573 57.35860845 195.65820312 59.93945312 C195.61663086 61.78120117 195.61663086 61.78120117 195.57421875 63.66015625 C195.55963623 64.78043213 195.54505371 65.90070801 195.5300293 67.05493164 C194.88619434 70.63235268 193.86932575 71.82875011 191 74 C187.9375 74.4375 187.9375 74.4375 185 74 C182.96332385 72.45493534 182.13926922 71.27853844 181 69 C180.84588894 66.9692523 180.75017547 64.93393579 180.68359375 62.8984375 C180.64169922 61.68671875 180.59980469 60.475 180.55664062 59.2265625 C180.51732422 57.95554688 180.47800781 56.68453125 180.4375 55.375 C180.39431641 54.09625 180.35113281 52.8175 180.30664062 51.5 C180.20030114 48.33344652 180.09827167 45.16681247 180 42 C130.12096654 23.62683704 77.16802314 20.56657247 27 40 C24.982426 40.96405143 22.97446479 41.95048165 21 43 C20.96241577 44.20329956 20.96241577 44.20329956 20.92407227 45.4309082 C20.80817957 49.05827074 20.68542249 52.68536917 20.5625 56.3125 C20.52318359 57.57513672 20.48386719 58.83777344 20.44335938 60.13867188 C20.40146484 61.34716797 20.35957031 62.55566406 20.31640625 63.80078125 C20.26141968 65.47394409 20.26141968 65.47394409 20.20532227 67.1809082 C20 70 20 70 19 73 C17.58845901 73.27748242 16.17020201 73.52093516 14.75 73.75 C13.56664062 73.95882812 13.56664062 73.95882812 12.359375 74.171875 C10 74 10 74 7.8840332 72.35864258 C5.51849741 69.39720144 5.50278433 67.84558891 5.49609375 64.08984375 C5.47740234 62.93419922 5.45871094 61.77855469 5.43945312 60.58789062 C5.43880859 59.38326172 5.43816406 58.17863281 5.4375 56.9375 C5.37592947 40.86759156 2.34506746 26.92919676 -8.97265625 14.84375 C-19.14274303 5.59465374 -31.38513623 1.24946469 -45.06640625 1.7421875 C-57.82134653 2.86312766 -68.63148166 8.96658753 -77.25 18.3125 Z " fill="#0C0B0A" transform="translate(155,17)"/>
<path d="M0 0 C1.05126572 -0.00630432 2.10253143 -0.01260864 3.18565369 -0.019104 C4.32523026 -0.01505554 5.46480682 -0.01100708 6.63891602 -0.00683594 C8.38858421 -0.00970612 8.38858421 -0.00970612 10.17359924 -0.01263428 C12.64421809 -0.0139973 15.11484407 -0.01029272 17.58544922 -0.00195312 C21.37361719 0.00873488 25.16130985 -0.00183981 28.94946289 -0.01464844 C31.34594832 -0.01332668 33.74243344 -0.01076394 36.13891602 -0.00683594 C37.84524452 -0.01290863 37.84524452 -0.01290863 39.58604431 -0.019104 C41.16767113 -0.00964752 41.16767113 -0.00964752 42.78125 0 C43.71009506 0.00159119 44.63894012 0.00318237 45.59593201 0.00482178 C47.95532227 0.25878906 47.95532227 0.25878906 50.95532227 2.25878906 C50.67311583 8.952373 47.98233172 12.61691988 43.95532227 17.82128906 C42.76471903 19.4075062 41.57724418 20.99607604 40.39282227 22.58691406 C39.80758789 23.37130859 39.22235352 24.15570313 38.61938477 24.96386719 C35.49423762 29.27378255 32.73190052 33.80176563 29.95532227 38.34082031 C27.83508613 41.4342117 25.88933508 43.9106843 22.95532227 46.25878906 C19.78842765 46.1248923 18.4092396 45.74436015 16.22583008 43.40869141 C15.70859375 42.60383301 15.19135742 41.79897461 14.65844727 40.96972656 C14.06354492 40.06448242 13.46864258 39.15923828 12.85571289 38.2265625 C12.22858398 37.24719727 11.60145508 36.26783203 10.95532227 35.25878906 C9.5983175 33.22855696 8.23888151 31.19994809 6.87719727 29.17285156 C5.4853854 27.07728519 4.09477081 24.98092316 2.70532227 22.88378906 C1.30537011 20.77108754 -0.09562889 18.65907923 -1.49780273 16.54785156 C-2.10785156 15.62697754 -2.71790039 14.70610352 -3.34643555 13.75732422 C-4.99006886 11.2694922 -4.99006886 11.2694922 -6.77807617 9.09228516 C-8.04467773 7.25878906 -8.04467773 7.25878906 -7.85717773 4.63378906 C-6.31672576 0.13092944 -4.39342675 0.00753275 0 0 Z " fill="#050302" transform="translate(234.044677734375,222.7412109375)"/>
<path d="M0 0 C6.13122618 2.54038567 11.02022913 7.04045827 14 13 C14.76458487 19.74338788 14.19974609 25.50614611 10 31 C4.45951457 36.06198896 -0.69115919 37.48508033 -8.140625 37.40625 C-13.6301769 36.62631366 -16.79322279 33.45683695 -20.37890625 29.46484375 C-24.04566928 24.26493938 -23.80812091 18.09918623 -23 12 C-19.13198982 2.91858481 -9.58380723 -2.05588123 0 0 Z " fill="#060303" transform="translate(334,167)"/>
<path d="M0 0 C5.43069351 2.46849705 9.11385327 5.91520653 11.8125 11.3125 C12.30137732 17.11491278 12.66795438 22.46998286 10.1875 27.8125 C5.15046309 33.11464412 1.19338527 36.40995696 -6.375 36.6875 C-12.14388921 36.61882275 -15.97733497 35.29428344 -20.1875 31.3125 C-24.1711385 26.02028257 -25.72731471 20.89823944 -25.1875 14.3125 C-22.98810278 7.68917238 -19.29181855 3.68165949 -13.265625 0.203125 C-8.99723883 -1.62618336 -4.38773518 -1.37900249 0 0 Z " fill="#060403" transform="translate(188.1875,167.6875)"/>
<path d="M0 0 C2.69203064 1.02768395 3.82840338 2.40452332 5.66015625 4.61328125 C6.52833984 5.64388672 6.52833984 5.64388672 7.4140625 6.6953125 C8.24744141 7.73751953 8.24744141 7.73751953 9.09765625 8.80078125 C9.93103516 9.79658203 9.93103516 9.79658203 10.78125 10.8125 C12.6297507 13.60444914 12.64557884 15.62885611 12.51171875 18.90234375 C12.09765625 20.80078125 12.09765625 20.80078125 9.97265625 23.17578125 C4.52586368 26.25440314 -0.44823306 27.16522333 -6.65234375 27.11328125 C-7.71014038 27.10482178 -7.71014038 27.10482178 -8.78930664 27.09619141 C-18.95517407 26.86110209 -25.83596662 23.8213381 -33.90234375 17.80078125 C-32.90234375 14.80078125 -32.90234375 14.80078125 -31.28515625 13.984375 C-30.54007812 13.73816406 -29.795 13.49195313 -29.02734375 13.23828125 C-20.88258399 10.22258303 -13.34836838 5.87437418 -5.71484375 1.76879883 C-2.00903939 -0.21039221 -2.00903939 -0.21039221 0 0 Z " fill="#AD8262" transform="translate(374.90234375,454.19921875)"/>
<path d="M0 0 C2.84993206 1.0438201 5.13792801 2.36732929 7.6953125 4.00390625 C15.88397535 8.9499407 24.71041815 12.38714631 33.5703125 15.94140625 C25.44781922 24.414007 16.63734856 26.94419516 5.0703125 27.25390625 C-1.07301523 27.15319596 -7.2102242 26.54799007 -12.1328125 22.5625 C-13.96888501 20.26740936 -14.07988375 18.07509326 -13.984375 15.19921875 C-12.86391485 10.63847251 -9.55300959 7.31865697 -6.4296875 3.94140625 C-5.47835937 2.78898437 -5.47835937 2.78898437 -4.5078125 1.61328125 C-2.4296875 -0.05859375 -2.4296875 -0.05859375 0 0 Z " fill="#B18564" transform="translate(137.4296875,454.05859375)"/>
<path d="M0 0 C0.8125 1.6875 0.8125 1.6875 1 4 C-1.375 6.625 -1.375 6.625 -4 9 C-4.33 9.66 -4.66 10.32 -5 11 C-5.825 11.45375 -6.65 11.9075 -7.5 12.375 C-10.15913103 13.73004426 -10.15913103 13.73004426 -10.6875 16.125 C-10.790625 16.74375 -10.89375 17.3625 -11 18 C-11.66 18.33 -12.32 18.66 -13 19 C-17.49530975 25.74296462 -18.5052245 31.96865536 -19.4375 39.91796875 C-20 43 -20 43 -22 45 C-22.63963889 31.63865426 -20.53882111 20.61027587 -12 10 C-4.25507246 2.12753623 -4.25507246 2.12753623 0 0 Z " fill="#D9B596" transform="translate(90,25)"/>
<path d="M0 0 C0.99 0.33 1.98 0.66 3 1 C2.67 1.99 2.34 2.98 2 4 C1.360625 4.103125 0.72125 4.20625 0.0625 4.3125 C-0.618125 4.539375 -1.29875 4.76625 -2 5 C-3.19595537 7.8371515 -3.19595537 7.8371515 -4 11 C-4.37125 11.66 -4.7425 12.32 -5.125 13 C-6.21959316 15.1044755 -6.21959316 15.1044755 -5.875 18.0625 C-5.91625 19.031875 -5.9575 20.00125 -6 21 C-6.97827759 21.63023071 -6.97827759 21.63023071 -7.97631836 22.27319336 C-10.30858724 23.88862435 -10.30858724 23.88862435 -10.49829102 26.97094727 C-10.50014404 28.15744873 -10.50199707 29.3439502 -10.50390625 30.56640625 C-10.52259766 31.85611328 -10.54128906 33.14582031 -10.56054688 34.47460938 C-10.56300265 35.83723753 -10.56363269 37.19987011 -10.5625 38.5625 C-10.56724153 41.23134872 -10.59285847 43.89753517 -10.62890625 46.56640625 C-10.62963135 47.75177979 -10.63035645 48.93715332 -10.63110352 50.15844727 C-10.75283936 51.09615967 -10.8745752 52.03387207 -11 53 C-11.99 53.66 -12.98 54.32 -14 55 C-13.93036044 50.91011841 -13.84204385 46.82107662 -13.73754883 42.73193359 C-13.70461081 41.34532345 -13.6764856 39.95858923 -13.65356445 38.57177734 C-13.47136963 27.83391251 -12.3763557 18.62510276 -7.0625 9.125 C-6.57910156 8.24070312 -6.09570312 7.35640625 -5.59765625 6.4453125 C-3.96460156 3.94582049 -2.18249147 2.02693592 0 0 Z " fill="#CDAC91" transform="translate(364,34)"/>
<path d="M0 0 C2.5 2.3125 2.5 2.3125 5 5 C5 5.99 5 6.98 5 8 C3.83984375 8.18175781 2.6796875 8.36351562 1.484375 8.55078125 C-6.62764391 9.84783435 -14.59883748 11.2204521 -22.51953125 13.44921875 C-25.13844788 14.03074197 -27.32752057 14.24254435 -30 14 C-30.78375 13.319375 -31.5675 12.63875 -32.375 11.9375 C-34.92702051 9.62400082 -34.92702051 9.62400082 -38.5 10.1875 C-40.2325 10.5896875 -40.2325 10.5896875 -42 11 C-42.969375 11.185625 -43.93875 11.37125 -44.9375 11.5625 C-45.618125 11.706875 -46.29875 11.85125 -47 12 C-46.33203125 10.0625 -46.33203125 10.0625 -45 8 C-41.37831877 6.88025315 -37.77217307 6.7352861 -34 7 C-32.3174387 8.31321858 -30.65002828 9.64613064 -29 11 C-25.57288603 11.33503355 -22.36367656 10.64208112 -19 10 C-17.96649414 9.82138428 -17.96649414 9.82138428 -16.91210938 9.63916016 C-14.60013516 9.23113547 -12.30098461 8.77830201 -10 8.3125 C-9.24557617 8.17650391 -8.49115234 8.04050781 -7.71386719 7.90039062 C-5.27887471 7.42443965 -5.27887471 7.42443965 -2 6 C-0.39213397 2.99135005 -0.39213397 2.99135005 0 0 Z " fill="#D9BA97" transform="translate(229,235)"/>
<path d="M0 0 C-0.44158599 7.06537579 -6.06112898 12.32479253 -11 16.875 C-14.14807635 19.53270292 -16.92042756 21.0820962 -21 22 C-21 20.68 -21 19.36 -21 18 C-19.88625 17.62875 -18.7725 17.2575 -17.625 16.875 C-15.66884927 16.11907629 -15.66884927 16.11907629 -14 15 C-12.77479736 11.99152582 -12.77479736 11.99152582 -12 9 C-9.41024759 7.1621112 -8.21518097 7 -5 7 C-5.33 5.02 -5.66 3.04 -6 1 C-3 0 -3 0 0 0 Z " fill="#DDB99B" transform="translate(438,81)"/>
<path d="M0 0 C2.79403358 3.43217705 4.78348339 7.18329097 6.75 11.125 C7.09417969 11.81352051 7.43835938 12.50204102 7.79296875 13.21142578 C18 34.06947545 18 34.06947545 18 40 C16.515 39.505 16.515 39.505 15 39 C14.02853712 36.57134281 13.22987983 34.25042702 12.5 31.75 C11.39541408 28.05141876 10.35908654 24.59283154 8.34375 21.265625 C7 19 7 19 7 15 C6.34 15 5.68 15 5 15 C4.54625 13.865625 4.0925 12.73125 3.625 11.5625 C2.42904194 7.95278308 2.42904194 7.95278308 0 7 C-0.6875 4 -0.6875 4 -1 1 C-0.67 0.67 -0.34 0.34 0 0 Z " fill="#CDAE8D" transform="translate(439,152)"/>
<path d="M0 0 C0.33 0.66 0.66 1.32 1 2 C-5.54166644 3.75223208 -11.75801877 4.34051796 -18.50195312 4.48217773 C-22.44487061 4.6272002 -22.44487061 4.6272002 -25.93359375 6.3046875 C-27.63909355 9.01599488 -27.70413208 11.86380007 -28 15 C-28.33 15 -28.66 15 -29 15 C-29.05447047 13.58376784 -29.09300508 12.16691809 -29.125 10.75 C-29.14820313 9.96109375 -29.17140625 9.1721875 -29.1953125 8.359375 C-28.97782355 5.73210851 -28.47146532 4.18283598 -27 2 C-22.10235151 0.77558788 -17.26171007 0.93759727 -12.234375 1.0625 C-8.07877215 0.94625936 -4.31043069 -0.08132888 0 0 Z " fill="#D9B59A" transform="translate(412,104)"/>
<path d="M0 0 C0.66 0.33 1.32 0.66 2 1 C2 1.66 2 2.32 2 3 C2.66 3 3.32 3 4 3 C3.34 9.27 2.68 15.54 2 22 C-0.91678663 19.08321337 -2.94476617 16.11395666 -5.0625 12.625 C-5.75472656 11.50351562 -6.44695312 10.38203125 -7.16015625 9.2265625 C-8.70793125 6.5122055 -9.94073208 3.9308242 -11 1 C-10.34 1 -9.68 1 -9 1 C-8.814375 1.9590625 -8.814375 1.9590625 -8.625 2.9375 C-8.315625 3.9584375 -8.315625 3.9584375 -8 5 C-7.34 5.33 -6.68 5.66 -6 6 C-5.375 8.0625 -5.375 8.0625 -5 10 C-4.38125 10.0825 -3.7625 10.165 -3.125 10.25 C-1 11 -1 11 1 15 C0.67 10.05 0.34 5.1 0 0 Z " fill="#D7B792" transform="translate(80,359)"/>
<path d="M0 0 C0.66 0 1.32 0 2 0 C2.33 0.99 2.66 1.98 3 3 C2.01 2.67 1.02 2.34 0 2 C0 1.34 0 0.68 0 0 Z M-4 1 C-3.34 1 -2.68 1 -2 1 C-2 1.66 -2 2.32 -2 3 C-1.01 3 -0.02 3 1 3 C1.66 4.98 2.32 6.96 3 9 C5.64 9 8.28 9 11 9 C10.01 10.485 10.01 10.485 9 12 C9 12.99 9 13.98 9 15 C6.875 15.4375 6.875 15.4375 4 15 C0.79278147 12.08292104 -1.60550633 8.59174051 -4 5 C-4 3.68 -4 2.36 -4 1 Z " fill="#DAB69B" transform="translate(77,80)"/>
<path d="M0 0 C0.99 0.66 1.98 1.32 3 2 C2.34 2 1.68 2 1 2 C1 2.66 1 3.32 1 4 C-0.32 4 -1.64 4 -3 4 C-3.103125 4.5775 -3.20625 5.155 -3.3125 5.75 C-4 8 -4 8 -5.5 9.59375 C-7.72961063 13.17041706 -7.5673671 16.61056334 -7.6875 20.75 C-7.72166016 21.54277344 -7.75582031 22.33554688 -7.79101562 23.15234375 C-7.87319104 25.10107504 -7.93828045 27.05051362 -8 29 C-8.33 29 -8.66 29 -9 29 C-9 20.75 -9 12.5 -9 4 C-6.03 2.68 -3.06 1.36 0 0 Z " fill="#CAA682" transform="translate(185,56)"/>
<path d="M0 0 C0.66 0 1.32 0 2 0 C0.62820313 7.48252838 -1.92163279 14.05604954 -5 21 C-5.66 21 -6.32 21 -7 21 C-7 20.01 -7 19.02 -7 18 C-6.34 18 -5.68 18 -5 18 C-5.185625 16.741875 -5.37125 15.48375 -5.5625 14.1875 C-6.10017161 10.54328131 -5.67350418 8.34700835 -4 5 C-3.01 5 -2.02 5 -1 5 C-0.67 3.35 -0.34 1.7 0 0 Z " fill="#D4B38C" transform="translate(455,324)"/>
<path d="M0 0 C-0.33 0.99 -0.66 1.98 -1 3 C-4.05919388 4.01973129 -6.12418025 4.11533602 -9.32421875 4.09765625 C-10.35224609 4.09443359 -11.38027344 4.09121094 -12.43945312 4.08789062 C-13.51130859 4.07951172 -14.58316406 4.07113281 -15.6875 4.0625 C-16.77095703 4.05798828 -17.85441406 4.05347656 -18.97070312 4.04882812 C-21.64719085 4.03703743 -24.32356777 4.02058063 -27 4 C-26.67 3.01 -26.34 2.02 -26 1 C-24.15535156 1.01740234 -24.15535156 1.01740234 -22.2734375 1.03515625 C-20.64062653 1.04454022 -19.0078139 1.05363977 -17.375 1.0625 C-16.56675781 1.07087891 -15.75851562 1.07925781 -14.92578125 1.08789062 C-9.87932866 1.10840466 -4.97360733 0 0 0 Z " fill="#CEB186" transform="translate(414,122)"/>
<path d="M0 0 C2.51584891 0.24150773 2.51584891 0.24150773 5.1875 0.125 C6.53908203 0.09792969 6.53908203 0.09792969 7.91796875 0.0703125 C8.94857422 0.03550781 8.94857422 0.03550781 10 0 C7.25566658 2.74433342 5.00630941 2.74459141 1.23828125 3.1171875 C-2.03623042 2.9457471 -3.55114588 1.06219294 -6 -1 C-9.52894948 -0.91256309 -9.52894948 -0.91256309 -13 0 C-13.969375 0.185625 -14.93875 0.37125 -15.9375 0.5625 C-16.618125 0.706875 -17.29875 0.85125 -18 1 C-17.2734375 -0.9453125 -17.2734375 -0.9453125 -16 -3 C-13.9765625 -3.6796875 -13.9765625 -3.6796875 -11.625 -3.875 C-10.46871094 -3.99488281 -10.46871094 -3.99488281 -9.2890625 -4.1171875 C-5.47498419 -3.92192752 -3.13219815 -2.0881321 0 0 Z " fill="#D2B58F" transform="translate(200,246)"/>
<path d="M0 0 C0.76171875 1.62890625 0.76171875 1.62890625 1 4 C-0.73046875 6.83984375 -0.73046875 6.83984375 -3.1875 9.9375 C-3.98542969 10.95714844 -4.78335938 11.97679687 -5.60546875 13.02734375 C-6.39566406 14.00832031 -7.18585938 14.98929687 -8 16 C-8.75925781 16.95003906 -9.51851563 17.90007812 -10.30078125 18.87890625 C-10.86152344 19.57886719 -11.42226562 20.27882813 -12 21 C-12 19 -12 17 -12 15 C-11.01 15 -10.02 15 -9 15 C-8.9175 14.46375 -8.835 13.9275 -8.75 13.375 C-7.72418729 10.12659309 -6.03436106 7.71248141 -4 5 C-3.34 5 -2.68 5 -2 5 C-1.34 3.35 -0.68 1.7 0 0 Z " fill="#D2B38F" transform="translate(115,291)"/>
<path d="M0 0 C2.54250021 0.11474466 5.08347338 0.2414697 7.625 0.375 C8.33785156 0.4059375 9.05070312 0.436875 9.78515625 0.46875 C14.17152608 0.71020155 17.8594834 1.39342731 22 3 C22 3.33 22 3.66 22 4 C14.34393782 4.19355213 7.33741969 4.3479743 0 2 C0 1.34 0 0.68 0 0 Z " fill="#C9AA91" transform="translate(98,104)"/>
<path d="M0 0 C0.556875 0.226875 1.11375 0.45375 1.6875 0.6875 C1.048125 1.63625 0.40875 2.585 -0.25 3.5625 C-2.23870563 6.44037827 -2.23870563 6.44037827 -3.3125 8.6875 C-3.869375 8.336875 -4.42625 7.98625 -5 7.625 C-7.85136783 6.46904007 -9.39767222 6.87782562 -12.3125 7.6875 C-4.46923575 -0.60395078 -4.46923575 -0.60395078 0 0 Z " fill="#D9B293" transform="translate(380.3125,23.3125)"/>
<path d="M0 0 C4.09480199 3.74381897 7.7448683 7.8668907 10 13 C9.67 13.99 9.34 14.98 9 16 C6.47740939 14.02579865 6.0070192 13.03254358 5.3125 9.8125 C5.209375 8.884375 5.10625 7.95625 5 7 C3.02 7.33 1.04 7.66 -1 8 C-0.67 5.36 -0.34 2.72 0 0 Z " fill="#D7B499" transform="translate(429,32)"/>
<path d="M0 0 C1.23912545 3.57969574 0.95063395 6.35590321 0 10 C-0.99 10.66 -1.98 11.32 -3 12 C-4.19232613 14.05003955 -4.19232613 14.05003955 -5 16 C-5.99 16 -6.98 16 -8 16 C-8.3125 13.8125 -8.3125 13.8125 -8 11 C-6.3777546 9.29006566 -4.70586575 7.62652316 -3 6 C-1.20679176 2.83354526 -1.20679176 2.83354526 0 0 Z " fill="#D3AA7F" transform="translate(347,190)"/>
<path d="M0 0 C0.33 0 0.66 0 1 0 C1 8.25 1 16.5 1 25 C0.01 24.67 -0.98 24.34 -2 24 C-2.12529833 17.48448687 -2.12529833 17.48448687 -1.53125 15.1875 C-0.81072268 12.22062281 -0.65054249 9.2934641 -0.4375 6.25 C-0.35371094 5.07953125 -0.26992188 3.9090625 -0.18359375 2.703125 C-0.12300781 1.81109375 -0.06242187 0.9190625 0 0 Z " fill="#CCB092" transform="translate(334,62)"/>
<path d="M0 0 C0.66 0.33 1.32 0.66 2 1 C1.55269531 1.50789063 1.10539062 2.01578125 0.64453125 2.5390625 C0.03996094 3.22742188 -0.56460937 3.91578125 -1.1875 4.625 C-1.82558594 5.35074219 -2.46367187 6.07648437 -3.12109375 6.82421875 C-4.71033183 8.66456305 -6.23653963 10.53526082 -7.75 12.4375 C-10 15 -10 15 -13 16 C-11.57699887 11.31095412 -8.84303666 8.48389525 -5.375 5.1875 C-4.859375 4.68541016 -4.34375 4.18332031 -3.8125 3.66601562 C-2.54840846 2.43703773 -1.27511194 1.21753999 0 0 Z " fill="#777777" transform="translate(358,15)"/>
<path d="M0 0 C0.66 0.33 1.32 0.66 2 1 C1.8125 3.375 1.8125 3.375 1 6 C-0.64034193 6.72904086 -2.31301918 7.38655243 -4 8 C-6.77152212 10.52056045 -6.77152212 10.52056045 -9 13 C-9.66 12.67 -10.32 12.34 -11 12 C-7.37 8.04 -3.74 4.08 0 0 Z " fill="#F7F3E4" transform="translate(136,297)"/>
<path d="M0 0 C0.66 0.33 1.32 0.66 2 1 C0.87890549 2.12109451 -0.2428853 3.24149739 -1.3671875 4.359375 C-2.5908881 5.58893063 -3.80246773 6.83056971 -5.0078125 8.078125 C-5.70648438 8.79484375 -6.40515625 9.5115625 -7.125 10.25 C-7.78757812 10.93578125 -8.45015625 11.6215625 -9.1328125 12.328125 C-11 14 -11 14 -14 15 C-14 14.34 -14 13.68 -14 13 C-13.34 13 -12.68 13 -12 13 C-11.74089844 12.41476563 -11.48179688 11.82953125 -11.21484375 11.2265625 C-9.91381713 8.84204426 -8.50128994 7.26792609 -6.5625 5.375 C-5.96566406 4.78460937 -5.36882812 4.19421875 -4.75390625 3.5859375 C-3 2 -3 2 0 0 Z " fill="#5E5E5E" transform="translate(77,13)"/>
<path d="M0 0 C0.928125 0.20625 1.85625 0.4125 2.8125 0.625 C2.8125 1.285 2.8125 1.945 2.8125 2.625 C4.1325 2.955 5.4525 3.285 6.8125 3.625 C7.4375 6.4375 7.4375 6.4375 7.8125 9.625 C6.8225 11.11 6.8225 11.11 5.8125 12.625 C5.4721875 10.9853125 5.4721875 10.9853125 5.125 9.3125 C4.15283484 5.56839334 4.15283484 5.56839334 1.5 3.75 C-1.08619652 2.66740611 -3.41723281 2.02075246 -6.1875 1.625 C-3.1875 -0.375 -3.1875 -0.375 0 0 Z " fill="#DCBB9B" transform="translate(121.1875,105.375)"/>
<path d="M0 0 C0.33 0 0.66 0 1 0 C1.1875 2.3125 1.1875 2.3125 1 5 C-0.4375 6.5625 -0.4375 6.5625 -2 8 C-2.71447643 10.10332891 -2.71447643 10.10332891 -3 12 C-2.01 12.33 -1.02 12.66 0 13 C-2.97 12.505 -2.97 12.505 -6 12 C-6 8.38862487 -5.07469918 7.25267809 -3.0625 4.3125 C-2.51722656 3.50425781 -1.97195313 2.69601563 -1.41015625 1.86328125 C-0.71212891 0.94095703 -0.71212891 0.94095703 0 0 Z " fill="#CDB18C" transform="translate(284,230)"/>
<path d="M0 0 C2.46221297 3.69331946 2.11938241 5.21253608 1.75 9.5625 C1.66234375 10.71878906 1.5746875 11.87507813 1.484375 13.06640625 C1 16 1 16 -1 18 C-1.18451025 5.33029613 -1.18451025 5.33029613 0 0 Z " fill="#CBAF97" transform="translate(69,52)"/>
<path d="M0 0 C0 0.33 0 0.66 0 1 C-0.68964844 1.04898437 -1.37929687 1.09796875 -2.08984375 1.1484375 C-8.23409469 1.63728051 -14.0149077 2.52825599 -20 4 C-20.33 3.34 -20.66 2.68 -21 2 C-13.94887561 -0.21211746 -7.35342179 -0.20177072 0 0 Z " fill="#BDA18B" transform="translate(120,19)"/>
<path d="M0 0 C1.32 0.33 2.64 0.66 4 1 C3.72285156 1.4846875 3.44570312 1.969375 3.16015625 2.46875 C0.48790715 7.4138373 -0.59967438 11.39544133 -1 17 C-1.33 17 -1.66 17 -2 17 C-2.05441656 15.10448978 -2.09298035 13.2085208 -2.125 11.3125 C-2.14820313 10.25675781 -2.17140625 9.20101562 -2.1953125 8.11328125 C-1.99858729 4.97748141 -1.33057654 2.82354627 0 0 Z " fill="#D3B697" transform="translate(164,173)"/>
<path d="M0 0 C2.93200474 2.85276137 5.64315404 5.65079784 8 9 C6.35 9.33 4.7 9.66 3 10 C1.9375 8.125 1.9375 8.125 1 6 C1.33 5.34 1.66 4.68 2 4 C1.34 3.67 0.68 3.34 0 3 C0 2.01 0 1.02 0 0 Z " fill="#A17A5D" transform="translate(375,454)"/>
<path d="M0 0 C0.66 0 1.32 0 2 0 C1.79503906 0.66386719 1.59007813 1.32773437 1.37890625 2.01171875 C0.97478516 3.33623047 0.97478516 3.33623047 0.5625 4.6875 C0.29566406 5.55761719 0.02882813 6.42773438 -0.24609375 7.32421875 C-0.96344529 9.87025921 -1.517541 12.4003423 -2 15 C-2.66 14.34 -3.32 13.68 -4 13 C-3.71202618 8.00845374 -2.43490415 4.34048131 0 0 Z " fill="#CCAD8D" transform="translate(89,337)"/>
<path d="M0 0 C1.0725 0.00515625 2.145 0.0103125 3.25 0.015625 C4.85875 0.00789063 4.85875 0.00789063 6.5 0 C9.25 0.265625 9.25 0.265625 11.25 2.265625 C5.67289352 3.33358156 0.85563042 3.09185171 -4.75 2.265625 C-2.75 0.265625 -2.75 0.265625 0 0 Z " fill="#C4A88E" transform="translate(394.75,18.734375)"/>
<path d="M0 0 C2.875 0.1875 2.875 0.1875 6 1 C7.4375 3.4375 7.4375 3.4375 8 6 C7.67 6.66 7.34 7.32 7 8 C6.34 8 5.68 8 5 8 C4.67 7.01 4.34 6.02 4 5 C2.68671343 3.64691687 1.35500919 2.31129922 0 1 C0 0.67 0 0.34 0 0 Z " fill="#E2BA9B" transform="translate(124,21)"/>
<path d="M0 0 C1.07765625 0.10183594 2.1553125 0.20367188 3.265625 0.30859375 C4.08546875 0.39238281 4.9053125 0.47617187 5.75 0.5625 C5.75 0.8925 5.75 1.2225 5.75 1.5625 C0.8 2.2225 -4.15 2.8825 -9.25 3.5625 C-9.58 2.5725 -9.91 1.5825 -10.25 0.5625 C-6.70049966 -0.60056443 -3.69176052 -0.36115049 0 0 Z " fill="#D8B395" transform="translate(393.25,20.4375)"/>
<path d="M0 0 C1.32 1.32 2.64 2.64 4 4 C3.67 4.99 3.34 5.98 3 7 C0.4375 8.1875 0.4375 8.1875 -2 9 C-1.125 2.25 -1.125 2.25 0 0 Z " fill="#CFAC91" transform="translate(354,49)"/>
<path d="M0 0 C3.63 1.32 7.26 2.64 11 4 C9.68 5.32 8.36 6.64 7 8 C7 7.01 7 6.02 7 5 C4.03 4.505 4.03 4.505 1 4 C0.67 2.68 0.34 1.36 0 0 Z " fill="#9F7E66" transform="translate(160,466)"/>
<path d="M0 0 C-2.67477931 2.67477931 -5.492975 3.6464114 -9 5 C-9.99 5 -10.98 5 -12 5 C-12 4.01 -12 3.02 -12 2 C-7.8803623 0.70756464 -4.33168317 -0.26252625 0 0 Z " fill="#C9AF89" transform="translate(182,247)"/>
<path d="M0 0 C4.16138263 -0.08159574 7.9472484 0.01751476 12 1 C12.33 1.99 12.66 2.98 13 4 C8.51474352 3.343621 4.33085971 2.29925791 0 1 C0 0.67 0 0.34 0 0 Z " fill="#D8BA95" transform="translate(284,242)"/>
<path d="M0 0 C4.57478244 2.0214155 7.61831569 4.31993178 11 8 C7.31145641 7.29066469 4.21776055 5.93065633 1 4 C0.125 1.8125 0.125 1.8125 0 0 Z " fill="#D2B199" transform="translate(418,24)"/>
<path d="M0 0 C0.721875 0.268125 1.44375 0.53625 2.1875 0.8125 C1.8575 1.4725 1.5275 2.1325 1.1875 2.8125 C-0.1325 2.8125 -1.4525 2.8125 -2.8125 2.8125 C-3.1425 3.8025 -3.4725 4.7925 -3.8125 5.8125 C-5.1325 5.4825 -6.4525 5.1525 -7.8125 4.8125 C-3.50480769 -0.23365385 -3.50480769 -0.23365385 0 0 Z " fill="#9D7D68" transform="translate(137.8125,454.1875)"/>
<path d="M0 0 C0.99 0.33 1.98 0.66 3 1 C1.8553125 2.299375 1.8553125 2.299375 0.6875 3.625 C-1.75220073 6.53600655 -3.42998277 9.52943561 -5 13 C-5.66 12.34 -6.32 11.68 -7 11 C-4.69 7.37 -2.38 3.74 0 0 Z " fill="#20120B" transform="translate(108,304)"/>
<path d="M0 0 C0.66 0.66 1.32 1.32 2 2 C0.64758974 6.05723077 -1.60926242 7.49085419 -5 10 C-5.99 10 -6.98 10 -8 10 C-7.67 9.01 -7.34 8.02 -7 7 C-6.38125 6.71125 -5.7625 6.4225 -5.125 6.125 C-2.32079102 4.64041877 -1.45276712 2.76025753 0 0 Z " fill="#FBF8E8" transform="translate(132,303)"/>
<path d="M0 0 C0.33 0.99 0.66 1.98 1 3 C0.67 3.66 0.34 4.32 0 5 C-0.66 5 -1.32 5 -2 5 C-2.33 5.99 -2.66 6.98 -3 8 C-5.5625 9.1875 -5.5625 9.1875 -8 10 C-8 8.68 -8 7.36 -8 6 C-6.20963542 5.0234375 -4.41927083 4.046875 -2.62890625 3.0703125 C-0.83381685 2.08589976 -0.83381685 2.08589976 0 0 Z " fill="#E7E5D9" transform="translate(199,255)"/>
<path d="M0 0 C0.66 0 1.32 0 2 0 C2 3.33333333 2 6.66666667 2 10 C0.35 10 -1.3 10 -3 10 C-2.34 9.01 -1.68 8.02 -1 7 C-1 5.68 -1 4.36 -1 3 C-0.67 2.01 -0.34 1.02 0 0 Z " fill="#FBF7E6" transform="translate(269,253)"/>
<path d="M0 0 C0.99 0 1.98 0 3 0 C3 2.31 3 4.62 3 7 C1.68 7.33 0.36 7.66 -1 8 C-1 7.01 -1 6.02 -1 5 C-1.99 5 -2.98 5 -4 5 C-2.1875 2.5 -2.1875 2.5 0 0 Z " fill="#D3AC7F" transform="translate(84,133)"/>
<path d="M0 0 C-0.99 1.485 -0.99 1.485 -2 3 C-2 3.99 -2 4.98 -2 6 C-3.875 5.75 -3.875 5.75 -6 5 C-7.25 2.9375 -7.25 2.9375 -8 1 C-5.29120665 -0.35439668 -2.99066732 -0.06501451 0 0 Z " fill="#E6BC9B" transform="translate(88,89)"/>
<path d="M0 0 C-1.09445838 0.86657116 -2.20097781 1.71792724 -3.3125 2.5625 C-3.92738281 3.03816406 -4.54226562 3.51382812 -5.17578125 4.00390625 C-5.77777344 4.33261719 -6.37976563 4.66132813 -7 5 C-7.99 4.67 -8.98 4.34 -10 4 C-9.3125 2.0625 -9.3125 2.0625 -8 0 C-4.70572419 -1.09809194 -3.33588828 -1.11196276 0 0 Z " fill="#C8A988" transform="translate(147,267)"/>
<path d="M0 0 C0 0.99 0 1.98 0 3 C-5.35652174 5.06956522 -5.35652174 5.06956522 -8.3125 4.75 C-10 4 -10 4 -11 2 C-5.555 1.01 -5.555 1.01 0 0 Z " fill="#C4A883" transform="translate(337,202)"/>
<path d="M0 0 C0.66 0 1.32 0 2 0 C2.66 1.65 3.32 3.3 4 5 C3.01 5.33 2.02 5.66 1 6 C0.34 6.66 -0.32 7.32 -1 8 C-1 7.34 -1 6.68 -1 6 C-1.66 5.67 -2.32 5.34 -3 5 C-1.625 2.5 -1.625 2.5 0 0 Z " fill="#D0AF83" transform="translate(76,144)"/>
<path d="M0 0 C3.77545388 1.09068668 6.47043472 1.9083091 9 5 C7 6 7 6 3.9375 5.3125 C1 4 1 4 0.125 1.875 C0.08375 1.25625 0.0425 0.6375 0 0 Z " fill="#CDAC93" transform="translate(131,23)"/>
<path d="M0 0 C0.33 1.32 0.66 2.64 1 4 C-1.88087546 6.40072955 -4.56404834 8.47291037 -8 10 C-6.34908222 5.70761377 -3.26245434 3.1206085 0 0 Z " fill="#757574" transform="translate(121,444)"/>
<path d="M0 0 C0.66 0.66 1.32 1.32 2 2 C-0.97 4.97 -3.94 7.94 -7 11 C-7 7.42129926 -6.35127433 6.60319658 -4 4 C-1.8125 2.75 -1.8125 2.75 0 2 C0 1.34 0 0.68 0 0 Z " fill="#D3B18D" transform="translate(130,276)"/>
<path d="M0 0 C-1.24176695 0.70226141 -2.49385599 1.38629109 -3.75 2.0625 C-4.79414063 2.63677734 -4.79414063 2.63677734 -5.859375 3.22265625 C-8.36140628 4.1312406 -9.5332355 3.88336837 -12 3 C-8.45266434 -0.54733566 -4.72551531 -1.44220272 0 0 Z " fill="#A18168" transform="translate(166,475)"/>
<path d="M0 0 C1 2 1 2 0.22265625 4.6015625 C-0.16019531 5.59929687 -0.54304687 6.59703125 -0.9375 7.625 C-1.50791016 9.12933594 -1.50791016 9.12933594 -2.08984375 10.6640625 C-2.39019531 11.43492187 -2.69054687 12.20578125 -3 13 C-3.33 13 -3.66 13 -4 13 C-4.8125 10.4375 -4.8125 10.4375 -5 7 C-3.61938689 4.41907773 -1.8985496 2.22044902 0 0 Z " fill="#A17F65" transform="translate(129,460)"/>
<path d="M0 0 C0.33 0.99 0.66 1.98 1 3 C0.01 4.485 0.01 4.485 -1 6 C-0.34 6.33 0.32 6.66 1 7 C-0.32 7.99 -1.64 8.98 -3 10 C-3.66 9.34 -4.32 8.68 -5 8 C-3.35 5.36 -1.7 2.72 0 0 Z " fill="#E6E3D7" transform="translate(268,253)"/>
<path d="M0 0 C1.65 1.32 3.3 2.64 5 4 C4.67 4.66 4.34 5.32 4 6 C3.34 6 2.68 6 2 6 C1.67 6.66 1.34 7.32 1 8 C0.67 7.67 0.34 7.34 0 7 C-0.66 7.66 -1.32 8.32 -2 9 C-1.855625 8.443125 -1.71125 7.88625 -1.5625 7.3125 C-0.97230872 4.88615805 -0.476571 2.45093655 0 0 Z " fill="#D3AE85" transform="translate(315,198)"/>
<path d="M0 0 C1.2380014 3.57644848 0.74926071 6.33694766 0 10 C-1.65 10.33 -3.3 10.66 -5 11 C-3.55049545 7.2089881 -1.84827434 3.6125362 0 0 Z " fill="#D0AE8B" transform="translate(347,190)"/>
<path d="M0 0 C4.55015893 1.51671964 6.50057264 5.16891053 9 9 C8.01 9 7.02 9 6 9 C5.67 8.01 5.34 7.02 5 6 C4.34 6 3.68 6 3 6 C2.01 4.02 1.02 2.04 0 0 Z " fill="#CDAE90" transform="translate(422,129)"/>
<path d="M0 0 C0.66 0.66 1.32 1.32 2 2 C1.01 2 0.02 2 -1 2 C-1 2.66 -1 3.32 -1 4 C0.32 4.33 1.64 4.66 3 5 C3 5.66 3 6.32 3 7 C-0.35595828 6.40072174 -2.37801226 5.15377564 -5 3 C-3.35 2.01 -1.7 1.02 0 0 Z " fill="#D3AF96" transform="translate(93,97)"/>
<path d="M0 0 C0.33 0 0.66 0 1 0 C1.33 3.96 1.66 7.92 2 12 C1.34 12 0.68 12 0 12 C-1.31157516 9.37684968 -0.89649988 7.76966564 -0.5625 4.875 C-0.46066406 3.96492188 -0.35882813 3.05484375 -0.25390625 2.1171875 C-0.17011719 1.41851562 -0.08632812 0.71984375 0 0 Z " fill="#DDBBA0" transform="translate(70,64)"/>
<path d="M0 0 C0.99 1.485 0.99 1.485 2 3 C2.66 3 3.32 3 4 3 C3.37611108 6.61855575 2.8290723 7.1709277 0 10 C0 6.7 0 3.4 0 0 Z " fill="#CEB292" transform="translate(429,371)"/>
<path d="M0 0 C3.55780196 0.60990891 6.6828589 1.5783681 10 3 C8.4375 4.125 8.4375 4.125 6 5 C2.25 4.125 2.25 4.125 -1 3 C-0.67 2.01 -0.34 1.02 0 0 Z " fill="#DABB94" transform="translate(318,202)"/>
<path d="M0 0 C3.32310483 1.16757737 5.83361132 2.14948857 8 5 C8 5.99 8 6.98 8 8 C7.34 8 6.68 8 6 8 C4.4921875 6.25 4.4921875 6.25 2.875 4 C2.33617187 3.2575 1.79734375 2.515 1.2421875 1.75 C0.62730469 0.88375 0.62730469 0.88375 0 0 Z " fill="#BEA281" transform="translate(340,170)"/>
<path d="M0 0 C6.0546875 -0.1953125 6.0546875 -0.1953125 8 0 C8.66 0.66 9.32 1.32 10 2 C3.375 3.125 3.375 3.125 0 2 C0 1.34 0 0.68 0 0 Z " fill="#D1AF95" transform="translate(98,104)"/>
<path d="M0 0 C0.99 0.33 1.98 0.66 3 1 C1.02 5.455 1.02 5.455 -1 10 C-1.33 10 -1.66 10 -2 10 C-2.17942163 6.05272412 -2.09350689 3.4019487 0 0 Z " fill="#CAAB89" transform="translate(446,346)"/>
<path d="M0 0 C4.31392226 0.4793247 6.16569547 1.7457985 9 5 C8.34 5.66 7.68 6.32 7 7 C5.83040013 6.02433888 4.66438823 5.044375 3.5 4.0625 C2.8503125 3.51722656 2.200625 2.97195313 1.53125 2.41015625 C1.0259375 1.94480469 0.520625 1.47945313 0 1 C0 0.67 0 0.34 0 0 Z " fill="#C6A783" transform="translate(372,272)"/>
<path d="M0 0 C3.39325408 0.98969911 4.25957561 1.87760244 6 4.875 C3.83125748 4.36896008 2.00032373 3.87516187 0 2.875 C0 2.215 0 1.555 0 0.875 C-1.98 1.205 -3.96 1.535 -6 1.875 C-3 -0.125 -3 -0.125 0 0 Z " fill="#2F2115" transform="translate(193,244.125)"/>
<path d="M0 0 C0.66 0.33 1.32 0.66 2 1 C0.84826645 3.46800047 -0.04783565 5.04783565 -2 7 C-2.99 6.67 -3.98 6.34 -5 6 C-3.35 4.02 -1.7 2.04 0 0 Z " fill="#C8A988" transform="translate(90,125)"/>
<path d="M0 0 C0.66 0.33 1.32 0.66 2 1 C2.4140625 3.28515625 2.4140625 3.28515625 2.625 6.0625 C2.69976562 6.98160156 2.77453125 7.90070312 2.8515625 8.84765625 C2.92503906 9.91306641 2.92503906 9.91306641 3 11 C2.34 10.67 1.68 10.34 1 10 C0.33203125 7.96875 0.33203125 7.96875 -0.1875 5.5 C-0.36667969 4.6853125 -0.54585937 3.870625 -0.73046875 3.03125 C-0.81941406 2.3609375 -0.90835938 1.690625 -1 1 C-0.67 0.67 -0.34 0.34 0 0 Z " fill="#C6A790" transform="translate(156,50)"/>
<path d="M0 0 C0.33 0.66 0.66 1.32 1 2 C-2.47307692 7.82980769 -2.47307692 7.82980769 -5.140625 8.69140625 C-5.75421875 8.79324219 -6.3678125 8.89507812 -7 9 C-6.02180976 7.68677212 -5.0424189 6.37443848 -4.0625 5.0625 C-3.51722656 4.33160156 -2.97195312 3.60070312 -2.41015625 2.84765625 C-1 1 -1 1 0 0 Z " fill="#E1DFD4" transform="translate(132,301)"/>
<path d="M0 0 C-2.8125 1.5625 -2.8125 1.5625 -6 3 C-6.99 2.67 -7.98 2.34 -9 2 C-8 0 -8 0 -6.1875 -0.6875 C-3.81180233 -1.02688538 -2.26664171 -0.72856341 0 0 Z " fill="#A18168" transform="translate(385,477)"/>
<path d="M0 0 C1.9453125 0.77734375 1.9453125 0.77734375 4.125 1.9375 C5.21167969 2.50791016 5.21167969 2.50791016 6.3203125 3.08984375 C6.87460938 3.39019531 7.42890625 3.69054687 8 4 C7.67 4.66 7.34 5.32 7 6 C3.54074837 4.7508258 0.85306797 3.32472205 -2 1 C-1.34 0.67 -0.68 0.34 0 0 Z " fill="#E6E4D8" transform="translate(148,439)"/>
<path d="M0 0 C-0.33 1.32 -0.66 2.64 -1 4 C-2.98 4.33 -4.96 4.66 -7 5 C-2.25 0 -2.25 0 0 0 Z " fill="#E7E4D6" transform="translate(150,286)"/>
<path d="M0 0 C2 1 2 1 2.6328125 2.84765625 C2.79523438 3.57855469 2.95765625 4.30945313 3.125 5.0625 C3.29257812 5.79597656 3.46015625 6.52945313 3.6328125 7.28515625 C3.75398438 7.85105469 3.87515625 8.41695312 4 9 C3.01 8.67 2.02 8.34 1 8 C-0.1875 4.4375 -0.1875 4.4375 -1 1 C-0.67 0.67 -0.34 0.34 0 0 Z " fill="#C5A885" transform="translate(453,183)"/>
<path d="M0 0 C1.0625 1.8125 1.0625 1.8125 2 4 C1.67 4.99 1.34 5.98 1 7 C0.34 7 -0.32 7 -1 7 C-1.33 7.99 -1.66 8.98 -2 10 C-3.39195915 5.82412255 -1.82323219 3.86525224 0 0 Z " fill="#BB9D7B" transform="translate(62,169)"/>
<path d="M0 0 C1.09570312 0.10183594 2.19140625 0.20367187 3.3203125 0.30859375 C4.16335937 0.39238281 5.00640625 0.47617188 5.875 0.5625 C5.875 0.8925 5.875 1.2225 5.875 1.5625 C5.11574219 1.62308594 4.35648438 1.68367187 3.57421875 1.74609375 C2.58035156 1.82988281 1.58648437 1.91367188 0.5625 2 C-0.91669922 2.12181641 -0.91669922 2.12181641 -2.42578125 2.24609375 C-5.21875599 2.48062559 -5.21875599 2.48062559 -8.125 3.5625 C-8.125 2.5725 -8.125 1.5825 -8.125 0.5625 C-5.28943413 -0.85528293 -3.1341294 -0.30007622 0 0 Z " fill="#D9B793" transform="translate(182.125,165.4375)"/>
<path d="M0 0 C0.66 0.33 1.32 0.66 2 1 C0.02 3.31 -1.96 5.62 -4 8 C-4.33 7.01 -4.66 6.02 -5 5 C-3.35 3.35 -1.7 1.7 0 0 Z " fill="#6B6B69" transform="translate(358,15)"/>
<path d="M0 0 C-0.33 0.99 -0.66 1.98 -1 3 C-4.0625 4.1875 -4.0625 4.1875 -7 5 C-5.64703851 0.94111554 -4.27479763 0 0 0 Z " fill="#F7F6E7" transform="translate(358,442)"/>
<path d="M0 0 C1.485 0.99 1.485 0.99 3 2 C3.1875 5.125 3.1875 5.125 3 8 C2.34 8 1.68 8 1 8 C0.67 5.36 0.34 2.72 0 0 Z " fill="#DAB991" transform="translate(49,304)"/>
<path d="M0 0 C0.33 0 0.66 0 1 0 C1.9765625 6.0546875 1.9765625 6.0546875 2 8 C1.34 8.66 0.68 9.32 0 10 C-0.19412181 8.52168779 -0.38012131 7.04230684 -0.5625 5.5625 C-0.66691406 4.73878906 -0.77132813 3.91507813 -0.87890625 3.06640625 C-0.91886719 2.38449219 -0.95882813 1.70257813 -1 1 C-0.67 0.67 -0.34 0.34 0 0 Z " fill="#CCA988" transform="translate(462,212)"/>
<path d="M0 0 C2.475 0.99 2.475 0.99 5 2 C5 2.66 5 3.32 5 4 C6.65 4 8.3 4 10 4 C10 4.33 10 4.66 10 5 C4.60158311 5.49076517 4.60158311 5.49076517 1.625 3.0625 C0 1 0 1 0 0 Z " fill="#322417" transform="translate(336,87)"/>
<path d="M0 0 C2.31 0.33 4.62 0.66 7 1 C7 1.66 7 2.32 7 3 C5.02 3 3.04 3 1 3 C0.67 2.01 0.34 1.02 0 0 Z " fill="#DCBAA0" transform="translate(407,21)"/>
<path d="M0 0 C1.98 0 3.96 0 6 0 C3.80090595 2.19909405 1.43929746 4.07423885 -1 6 C-0.67 4.02 -0.34 2.04 0 0 Z " fill="#FBF8E6" transform="translate(201,250)"/>
<path d="M0 0 C-0.33 0.99 -0.66 1.98 -1 3 C-3.875 3.125 -3.875 3.125 -7 3 C-7.66 2.34 -8.32 1.68 -9 1 C-2.25 0 -2.25 0 0 0 Z " fill="#D4B992" transform="translate(313,246)"/>
<path d="M0 0 C-0.33 0.66 -0.66 1.32 -1 2 C-2.98 2 -4.96 2 -7 2 C-7.33 1.34 -7.66 0.68 -8 0 C-4.71023192 -1.09658936 -3.28696233 -0.79953138 0 0 Z " fill="#C3A583" transform="translate(323,243)"/>
<path d="M0 0 C2.97 0.33 5.94 0.66 9 1 C8.67 1.99 8.34 2.98 8 4 C6.68 3.67 5.36 3.34 4 3 C4 2.34 4 1.68 4 1 C2.68 0.67 1.36 0.34 0 0 Z " fill="#D3AF87" transform="translate(276,220)"/>
<path d="M0 0 C0.99 0.33 1.98 0.66 3 1 C1.37660195 2.70884005 -0.29319053 4.37446717 -2 6 C-2.66 6 -3.32 6 -4 6 C-2.84826645 3.53199953 -1.95216435 1.95216435 0 0 Z " fill="#1A0C05" transform="translate(194,196)"/>
<path d="M0 0 C1.25541557 3.76624671 0.37061958 5.37188934 -1 9 C-1.66 9 -2.32 9 -3 9 C-2.5020163 5.26512223 -2.12508244 3.18762365 0 0 Z " fill="#2C1D13" transform="translate(314,174)"/>
<path d="M0 0 C-1.33332095 3.99996286 -3.4957827 4.83782337 -7 7 C-6.22006468 2.47637516 -4.81844319 0 0 0 Z " fill="#CCAF8B" transform="translate(320,168)"/>
<path d="M0 0 C2.875 0.3125 2.875 0.3125 6 1 C6.66 1.99 7.32 2.98 8 4 C7.01 4.33 6.02 4.66 5 5 C3.35 3.35 1.7 1.7 0 0 Z " fill="#C5A885" transform="translate(191,169)"/>
<path d="M0 0 C0.6875 1.8125 0.6875 1.8125 1 4 C-0.1875 5.8125 -0.1875 5.8125 -2 7 C-4.1875 6.6875 -4.1875 6.6875 -6 6 C-5.195625 5.7525 -4.39125 5.505 -3.5625 5.25 C-0.828919 4.27761141 -0.828919 4.27761141 -0.1875 1.875 C-0.125625 1.25625 -0.06375 0.6375 0 0 Z " fill="#140600" transform="translate(125,116)"/>
<path d="M0 0 C0.33 0.66 0.66 1.32 1 2 C-0.125 3.5 -0.125 3.5 -2 5 C-5.1875 5.1875 -5.1875 5.1875 -8 5 C-5.44008376 2.98863724 -2.95409701 1.37154504 0 0 Z " fill="#24160F" transform="translate(423,100)"/>
</svg>
